<?xml version="1.0" encoding="UTF-8" standalone="no"?>
<svg
   xmlns:dc="http://purl.org/dc/elements/1.1/"
   xmlns:cc="http://creativecommons.org/ns#"
   xmlns:rdf="http://www.w3.org/1999/02/22-rdf-syntax-ns#"
   xmlns:svg="http://www.w3.org/2000/svg"
   xmlns="http://www.w3.org/2000/svg"
   width="500"
   height="200"
   viewBox="0 0 132.29166 52.916668"
   version="1.1"
   id="svg8">
  <defs
     id="defs2" />
  <metadata
     id="metadata5">
    <rdf:RDF>
      <cc:Work
         rdf:about="">
        <dc:format>image/svg+xml</dc:format>
        <dc:type
           rdf:resource="http://purl.org/dc/dcmitype/StillImage" />
        <dc:title></dc:title>
      </cc:Work>
    </rdf:RDF>
  </metadata>
  <g
     id="layer1">
    <path
       id="path1426-9"
       style="fill:none;fill-opacity:1;stroke:#000000;stroke-width:0.8492;stroke-linecap:butt;stroke-linejoin:miter;stroke-miterlimit:4;stroke-dasharray:none;stroke-opacity:1"
       d="m 118.95102,2.7068547 c -2.5376,0.6389835 -4.53145,2.8379589 -5.1072,5.3656832 -0.67996,2.4465631 -0.59603,5.0514111 -0.15148,7.5285111 0.43669,1.127252 1.06776,2.166129 1.52552,3.285046 1.00668,2.186085 2.03461,4.502007 3.93652,6.066625 1.38445,1.038849 3.33116,1.225204 4.88951,0.472133 0.55932,-0.234431 1.0815,-0.545499 1.62085,-0.820786 0.38706,0.54796 1.07607,0.64144 1.68885,0.735968 1.22686,0.178892 2.67016,-0.388753 3.11155,-1.618163 0.29099,-0.897956 -0.0362,-1.833259 -0.0566,-2.746438 -0.259,-2.610748 -0.40798,-5.239362 -0.80336,-7.831806 -0.29659,-0.924033 -1.37191,-1.364467 -2.27571,-1.171495 -1.74276,0.04314 -3.49632,-0.03861 -5.22968,0.146351 -0.89481,0.294945 -1.16153,1.368849 -1.02937,2.207406 0.002,0.91019 -0.0795,2.038681 0.75672,2.638578 0.5093,0.446793 1.25605,0.235546 1.78205,0.620268 0.21587,0.605157 -0.25168,1.313871 -0.81425,1.532296 -0.98175,0.255678 -1.85755,-0.543018 -2.3265,-1.325165 -0.8132,-1.380986 -1.03653,-3.023855 -1.10781,-4.599721 -0.01,-1.198019 0.0771,-2.446881 0.57802,-3.5503261 0.35693,-0.7319427 1.25221,-1.179533 2.03273,-0.860087 0.69513,0.2041705 0.88563,1.0307825 1.55642,1.2675951 0.94192,0.394765 1.97011,0.05005 2.94766,0.04863 0.69676,-0.06674 1.55136,-0.1419063 1.90699,-0.8466348 0.37822,-0.6325019 0.22003,-1.4083247 -0.106,-2.0242276 -0.88736,-2.1707991 -2.71956,-4.0321499 -5.04362,-4.5857889 -1.40371,-0.3827175 -2.88234,-0.2816571 -4.28181,0.065525 z" />
    <path
       id="path1439-4"
       style="fill:none;fill-opacity:1;stroke:#000000;stroke-width:0.8492;stroke-linecap:butt;stroke-linejoin:miter;stroke-miterlimit:4;stroke-dasharray:none;stroke-opacity:1"
       d="m 59.669629,16.534807 c -2.394859,0.626636 -4.716998,1.619963 -7.112366,2.245065 3.353666,3.459744 6.68284,6.505282 9.984203,10.015554 0.677339,1.123084 0.344633,2.479846 0.410254,3.716967 0.01115,1.169597 -0.176888,2.37904 0.128456,3.520172 0.552575,1.344104 2.120713,2.215859 3.549368,1.834143 1.107142,-0.157663 2.23244,-0.307744 3.295577,-0.655311 0.850009,-0.428285 1.166891,-1.569027 0.742728,-2.40314 -0.61194,-2.16725 -1.298191,-4.312426 -1.930358,-6.473737 0.357061,-1.41166 0.769654,-2.813108 1.154205,-4.219547 0.75935,-2.729387 1.564669,-5.447682 2.208912,-8.205738 0.08105,-0.901687 -0.906329,-1.668219 -1.762657,-1.381484 -1.221325,0.163884 -2.403729,0.534118 -3.612317,0.763776 -0.836451,0.228888 -1.557399,0.929427 -1.632225,1.821155 -0.269752,1.267839 -0.236299,2.595813 -0.622452,3.837384 -0.08505,0.203156 -0.286731,0.645069 -0.523255,0.330276 -0.66356,-0.86161 -1.009393,-1.917035 -1.538309,-2.860593 -0.367851,-0.894423 -1.019261,-1.908844 -2.093489,-1.951763 -0.217344,-0.01121 -0.435538,0.01308 -0.64627,0.06672 z" />
    <path
       id="path1616-0"
       style="fill:none;fill-opacity:1;stroke:#000000;stroke-width:0.8492;stroke-linecap:butt;stroke-linejoin:miter;stroke-miterlimit:4;stroke-dasharray:none;stroke-opacity:1"
       d="m 96.573501,11.627981 c -1.316441,0.302292 -2.052029,1.604048 -2.420407,2.8024 -0.110634,0.338344 -0.19359,0.685038 -0.267821,1.033148 -1.093028,-0.06484 -2.332991,-0.182787 -3.260148,0.516405 -0.84128,0.808852 -0.699979,2.178352 -0.182725,3.123574 0.394369,0.679225 1.040672,1.150643 1.586629,1.695078 -0.199104,1.418169 -0.489344,2.954656 0.129945,4.310376 0.52489,0.913309 1.791846,1.122054 2.685137,0.653256 0.781315,-0.278573 1.476731,-0.741381 2.169627,-1.187431 1.093594,0.855053 2.267563,1.880197 3.733802,1.891587 1.41606,-0.08499 2.45962,-1.650494 2.0652,-2.999738 -0.12648,-0.990144 -0.46165,-1.935553 -0.74046,-2.8895 0.8703,-0.600107 1.88974,-1.316181 1.99327,-2.465681 0.17799,-1.185602 -0.67924,-2.461418 -1.89964,-2.606507 -0.63046,-0.162707 -1.28505,-0.178173 -1.93148,-0.220413 -0.332681,-1.240625 -0.707654,-2.659916 -1.858829,-3.394287 -0.540019,-0.311526 -1.195346,-0.418741 -1.80206,-0.262267 z" />
    <path
       id="path1620-4"
       style="fill:none;fill-opacity:1;stroke:#000000;stroke-width:0.8492;stroke-linecap:butt;stroke-linejoin:miter;stroke-miterlimit:4;stroke-dasharray:none;stroke-opacity:1"
       d="m 21.389905,28.633755 c -1.125595,0.36292 -1.587449,1.579524 -1.872937,2.618356 -0.172382,0.644209 -0.245063,1.309762 -0.301726,1.972874 -1.103288,-0.06506 -2.275327,-0.253096 -3.313893,0.241835 -0.843345,1.215811 -0.377063,2.937327 0.692528,3.85439 0.281908,0.28232 0.591336,0.53537 0.873869,0.816936 -0.22712,1.891991 -0.0725,3.966088 1.059927,5.563729 0.628811,0.737287 1.796865,0.757616 2.553956,0.209169 0.874466,-0.445836 1.61218,-1.110884 2.297678,-1.803645 1.268046,0.935626 2.95748,1.608323 4.518143,1.036591 0.919187,-0.321638 1.548073,-1.354084 1.261855,-2.314422 -0.194017,-0.857438 -0.620652,-1.605985 -0.903891,-2.407115 -0.148269,-0.359325 -0.294533,-0.719794 -0.419594,-1.087984 0.964842,-0.703806 1.787136,-1.815726 1.648718,-3.06914 -0.05628,-1.129685 -0.967485,-2.215943 -2.141258,-2.245903 -0.561431,-0.07549 -1.131284,0.0098 -1.677618,0.142767 -0.659151,-1.313593 -1.377341,-2.795046 -2.789963,-3.43318 -0.470456,-0.182725 -0.996491,-0.230609 -1.485792,-0.09525 z" />
    <path
       id="path1426"
       style="fill:#0181c7;fill-opacity:1;stroke:#ffffff;stroke-width:0.8492;stroke-linecap:butt;stroke-linejoin:miter;stroke-miterlimit:4;stroke-dasharray:none;stroke-opacity:1"
       d="m 119.36632,3.5329792 c -2.00203,0.4366078 -3.69529,1.9669683 -4.36987,3.8975294 -0.95305,2.4522071 -0.84085,5.1598934 -0.50814,7.7231704 0.14571,0.634364 0.57196,1.158253 0.80565,1.762985 1.09622,2.279135 1.98684,4.726801 3.67383,6.655574 0.8891,0.992969 2.25247,1.636352 3.59711,1.359184 1.11443,-0.168254 2.06685,-0.815668 3.04122,-1.325766 0.43828,-0.12563 0.65626,0.343977 0.89795,0.596818 0.47969,0.208972 1.02349,0.254969 1.53901,0.277462 0.68701,-0.0797 1.46129,-0.502811 1.63209,-1.214515 0.0462,-0.739195 -0.13982,-1.472473 -0.15905,-2.212274 -0.23789,-2.489544 -0.42849,-4.97838 -0.71542,-7.457484 -0.0893,-0.477353 -0.54662,-0.841139 -1.03864,-0.729804 -1.77689,0.03046 -3.55699,0.0023 -5.33153,0.08995 -0.56429,0.17583 -0.4912,0.871982 -0.46141,1.334361 0.0365,0.592288 -0.086,1.252966 0.2068,1.790923 0.55177,0.594695 1.55376,0.209096 2.07703,0.865092 0.5583,0.57253 0.31304,1.47938 -0.0414,2.093873 -0.45527,0.811626 -1.46851,1.237681 -2.36302,0.956776 -1.45433,-0.379688 -2.35334,-1.785114 -2.78868,-3.139097 -0.64063,-1.968298 -0.75913,-4.102984 -0.40855,-6.138348 0.20312,-1.1419017 0.76934,-2.4247891 1.95824,-2.8070419 0.98783,-0.3122118 2.19329,-0.020775 2.79122,0.8652615 0.2507,0.3751427 0.66109,0.6357959 1.12561,0.5529817 0.86683,-0.029098 1.72116,-0.1320391 2.58745,-0.202415 0.41992,-0.070017 0.71092,-0.4954519 0.55912,-0.909375 -0.21456,-0.9287638 -0.769,-1.7419979 -1.31538,-2.5075072 -1.1984,-1.5573877 -3.15033,-2.4895264 -5.11794,-2.4078786 -0.64767,0.00764 -1.23447,0.086177 -1.87331,0.2295726 z" />
    <path
       id="path1428-1"
       style="fill:none;fill-opacity:1;stroke:#000000;stroke-width:0.8492;stroke-linecap:butt;stroke-linejoin:miter;stroke-miterlimit:4;stroke-dasharray:none;stroke-opacity:1"
       d="m 110.28807,4.3163664 c -1.17563,0.4819493 -2.3485,1.0134244 -3.428,1.6790447 -0.73043,0.6705279 -0.60031,1.8296073 -0.11577,2.6042648 0.50649,1.2235618 1.22995,2.3767811 1.61614,3.6365641 -0.32617,0.157838 -0.61742,-0.243924 -0.86893,-0.409824 -1.12717,-1.080341 -2.27473,-2.1401821 -3.42455,-3.1972447 -0.55273,-0.4259871 -1.04985,-1.0952698 -1.81532,-1.068112 -1.1275,0.016135 -1.96722,0.8903694 -2.909128,1.3883913 -0.570691,0.3521683 -1.141553,0.7040658 -1.712119,1.0564274 2.492017,6.388165 4.945157,12.794085 7.503457,19.154654 0.55387,0.90695 1.84532,0.916241 2.67907,0.417829 1.16262,-0.487187 2.45058,-0.818975 3.51459,-1.531867 0.70771,-0.687751 0.48299,-1.803855 0.0664,-2.584458 -0.50928,-1.329122 -1.16008,-2.543032 -1.55437,-3.904373 0.29178,-0.185392 0.41673,0.281459 0.64088,0.38783 1.42762,1.323868 2.71652,2.826585 4.25637,4.041847 0.84825,0.500932 1.91699,0.264787 2.70099,-0.247207 0.82081,-0.413725 1.84549,-0.700772 2.31505,-1.558283 0.44822,-1.019125 -0.1878,-2.05335 -0.57829,-2.974703 -2.31556,-5.373139 -4.60026,-10.762136 -6.96205,-16.1137052 -0.39218,-0.6265971 -1.20328,-0.9762694 -1.9244,-0.777081 z" />
    <path
       id="path1428"
       style="fill:#0181c7;fill-opacity:1;stroke:#ffffff;stroke-width:0.8492;stroke-linecap:butt;stroke-linejoin:miter;stroke-miterlimit:4;stroke-dasharray:none;stroke-opacity:1"
       d="m 110.20146,5.3112443 c -0.86949,0.3580905 -1.74419,0.8467662 -2.62357,1.2509344 -0.44385,0.3055814 -0.41617,0.9237941 -0.15479,1.3406261 0.54478,1.3151114 1.24886,2.5613632 1.77671,3.8811112 0.2181,0.57419 -0.10543,1.317314 -0.75549,1.386178 -0.90317,0.140826 -1.52076,-0.681177 -2.11703,-1.213938 -1.24562,-1.132713 -2.43745,-2.3322876 -3.72591,-3.4130703 -0.73455,-0.3231724 -1.38072,0.3492979 -1.98205,0.6721364 -0.626529,0.3872352 -1.253047,0.7744701 -1.879576,1.1617049 2.379406,6.091325 4.724806,12.197772 7.134946,18.275913 0.29311,0.500094 0.96397,0.416872 1.39942,0.171 1.12737,-0.440072 2.25679,-0.829719 3.35238,-1.348105 0.48345,-0.392263 0.2143,-1.049177 -6e-5,-1.509143 -0.55272,-1.428197 -1.24298,-2.808397 -1.71796,-4.262822 -0.11563,-0.892323 1.18153,-1.515324 1.77276,-0.80058 1.44795,1.332933 2.78953,2.779126 4.23147,4.115286 0.451,0.391884 1.12677,0.48914 1.63692,0.14655 0.75128,-0.351393 1.5297,-0.671259 2.22725,-1.119009 0.49667,-0.53786 0.10001,-1.286997 -0.15027,-1.840624 -2.35078,-5.50493 -4.73188,-10.999657 -7.10033,-16.4952909 -0.19457,-0.4620892 -0.75676,-0.7052834 -1.20753,-0.441873 -0.0391,0.014323 -0.0782,0.028645 -0.11732,0.043027 z" />
    <path
       id="path1430-7"
       style="fill:none;fill-opacity:1;stroke:#000000;stroke-width:0.8492;stroke-linecap:butt;stroke-linejoin:miter;stroke-miterlimit:4;stroke-dasharray:none;stroke-opacity:1"
       d="m 94.532602,8.1290266 c -2.276327,0.6281933 -3.902325,2.5844894 -4.871959,4.6498524 -1.269565,2.635731 -1.737243,5.585587 -1.777093,8.490333 1.19744,2.916817 2.436361,5.974091 4.823645,8.14108 2.293667,2.06063 5.886843,2.32827 8.553065,0.846999 2.39768,-1.287813 4.04071,-3.756853 4.52413,-6.41306 0.63031,-3.089346 0.15021,-6.30516 -0.81567,-9.272277 -0.87438,-2.50321 -2.58461,-4.8764015 -5.103209,-5.9041038 C 98.195655,7.9604096 96.310459,7.7882543 94.532602,8.1290266 Z" />
    <path
       style="fill:#0181c7;fill-opacity:1;stroke:#ffffff;stroke-width:0.8492;stroke-linecap:butt;stroke-linejoin:miter;stroke-miterlimit:4;stroke-dasharray:none;stroke-opacity:1"
       d="m 94.706512,9.0111246 c -1.983517,0.5640054 -3.343619,2.3214304 -4.214139,4.1008164 -1.19923,2.479087 -1.661749,5.254642 -1.704618,7.9908 1.051576,2.55479 2.121207,5.212277 4.080782,7.222381 1.32439,1.398582 3.289751,2.155486 5.21097,1.941243 2.732323,-0.161427 5.133723,-2.10832 6.191523,-4.580615 1.16977,-2.655291 1.04938,-5.665609 0.49865,-8.438747 -0.51215,-2.494016 -1.47667,-5.011827 -3.4781,-6.6802 -1.716937,-1.4436397 -4.040162,-1.9123928 -6.238758,-1.6318002 -0.117072,0.018115 -0.231419,0.047834 -0.346316,0.076085 z"
       id="path1430" />
    <path
       id="path1385-9"
       style="fill:#ffffff;stroke:#ffffff;stroke-width:0.8492;stroke-linecap:butt;stroke-linejoin:miter;stroke-miterlimit:4;stroke-dasharray:none;stroke-opacity:1"
       d="m 96.105615,12.092114 c -0.97435,0.319384 -1.249661,1.414853 -1.513366,2.285266 -0.181751,0.58571 -0.370528,1.176267 -0.555054,1.763925 -0.983992,-0.0029 -2.024261,-0.252649 -2.970888,0.109009 -0.687173,0.327463 -0.881481,1.277757 -0.423699,1.873913 0.497098,0.82459 1.379355,1.321639 1.968491,2.05896 -0.314108,1.891933 -0.609517,3.813871 -0.916491,5.717229 1.614749,-1.040977 3.22905,-2.082647 4.843618,-3.123902 0.964906,0.684314 1.820985,1.561289 2.912474,2.044552 0.63607,0.229522 1.46,-0.115016 1.56675,-0.828463 0.28158,-1.1694 -0.30952,-2.297619 -0.55699,-3.417363 -0.0507,-0.319407 -0.26941,-0.691261 -0.22077,-0.979638 0.70754,-0.602988 1.60031,-1.069155 2.06659,-1.901756 0.30215,-0.688577 -0.17542,-1.519717 -0.90194,-1.662541 -0.89958,-0.292985 -1.881498,-0.12567 -2.78974,-0.309103 -0.270664,-0.954768 -0.517469,-1.940627 -0.930045,-2.852096 -0.299229,-0.546766 -0.94213,-0.973676 -1.578946,-0.777981 z" />
    <path
       id="path1439"
       style="fill:#0181c7;fill-opacity:1;stroke:#ffffff;stroke-width:0.8492;stroke-linecap:butt;stroke-linejoin:miter;stroke-miterlimit:4;stroke-dasharray:none;stroke-opacity:1"
       d="m 59.880191,17.40847 c -1.891108,0.494342 -3.782216,0.988673 -5.673327,1.483009 2.990726,3.084154 6.021664,6.132393 8.976699,9.249169 0.878079,1.120281 0.662467,2.627306 0.666572,3.951787 0.0056,1.149064 -0.08866,2.291329 -0.0082,3.434556 0.339601,0.885734 1.213383,1.643458 2.210338,1.500158 1.09223,-0.07562 2.161719,-0.345658 3.237956,-0.525881 0.464031,-0.125512 0.81145,-0.614578 0.613558,-1.091716 -0.306698,-1.252445 -0.748236,-2.467707 -1.094834,-3.710042 -0.340201,-1.125112 -0.682157,-2.249701 -1.021265,-3.375136 1.119161,-4.081687 2.307198,-8.145819 3.380842,-12.238862 0.09708,-0.312726 -0.03159,-0.73847 -0.42558,-0.693173 -0.78482,-0.0011 -1.528878,0.312511 -2.297268,0.441504 -0.713623,0.189892 -1.529477,0.203854 -2.133972,0.662048 -0.508286,0.632309 -0.381852,1.511848 -0.556085,2.262321 -0.155931,1.056285 -0.140345,2.228432 -0.776617,3.135456 -0.358214,0.477818 -1.110358,0.583888 -1.536061,0.133473 -0.782997,-0.683312 -1.017908,-1.74744 -1.547538,-2.606208 -0.352407,-0.664046 -0.548543,-1.382843 -1.125835,-1.890931 -0.258463,-0.175326 -0.592924,-0.210205 -0.889396,-0.121509 z" />
    <path
       id="path1441-6"
       style="fill:none;fill-opacity:1;stroke:#000000;stroke-width:0.8492;stroke-linecap:butt;stroke-linejoin:miter;stroke-miterlimit:4;stroke-dasharray:none;stroke-opacity:1"
       d="m 56.254458,17.066276 c -2.366508,0.885286 -4.610762,2.056446 -6.933739,3.047327 -0.555783,0.250599 -1.111603,0.501107 -1.667355,0.751775 2.482373,6.32468 4.948203,12.65912 7.452629,18.973105 0.336226,0.509498 0.742528,1.204325 1.460301,1.093629 1.538458,-0.55737 2.985619,-1.26022 4.500875,-1.8836 1.524462,-0.66639 3.075158,-1.296197 4.557664,-2.042729 0.794721,-0.619554 0.656935,-1.816088 0.162508,-2.581382 -0.512956,-1.081705 -0.820571,-2.2987 -1.608776,-3.223264 -0.744136,-0.591553 -1.779232,-0.218759 -2.45108,0.299965 -0.810172,0.429396 -1.518031,1.061546 -2.406346,1.333953 -0.661595,-0.207873 -0.773178,-1.010566 -0.998907,-1.573387 -0.03858,-0.167598 -0.151021,-0.52052 0.133341,-0.508846 1.003064,-0.266644 2.047235,-0.413867 3.012458,-0.803282 0.638168,-0.248589 1.155745,-0.897633 1.010215,-1.609274 -0.125558,-0.836366 -0.635853,-1.544735 -0.895255,-2.339916 -0.310541,-0.707067 -0.592306,-1.605096 -1.382283,-1.897883 -0.962422,-0.280632 -1.799023,0.440786 -2.587277,0.872785 -0.422258,0.262715 -0.84361,0.571223 -1.345204,0.655798 -0.398292,-0.369697 -0.458737,-0.961985 -0.638338,-1.44899 -0.084,-0.314188 0.216278,-0.405629 0.454871,-0.431372 0.944675,-0.263852 1.943472,-0.331029 2.868442,-0.654535 0.663533,-0.272984 0.9927,-1.066816 0.755802,-1.737017 C 59.473204,20.532729 59.021186,19.78781 58.74504,18.973892 58.426972,18.200428 58.034091,17.225218 57.114943,17.04482 56.83081,16.98584 56.535767,16.998 56.25446,17.06633 Z" />
    <path
       id="path1441"
       style="fill:#0181c7;fill-opacity:1;stroke:#ffffff;stroke-width:0.8492;stroke-linecap:butt;stroke-linejoin:miter;stroke-miterlimit:4;stroke-dasharray:none;stroke-opacity:1"
       d="m 56.445719,17.944916 c -1.416965,0.49835 -2.740097,1.220539 -4.12371,1.80074 -1.173222,0.529244 -2.346445,1.058488 -3.519668,1.587733 2.354238,6.006757 4.69987,12.016887 7.068456,18.01801 0.231953,0.189983 0.341656,0.808767 0.667784,0.668428 2.824679,-1.228963 5.670236,-2.412856 8.478508,-3.677552 0.459525,-0.321185 0.277445,-0.945585 0.04173,-1.347789 -0.475393,-1.015259 -0.814779,-2.107443 -1.402765,-3.062289 -0.475298,-0.376966 -1.028489,0.07424 -1.44055,0.32338 -0.861106,0.489887 -1.665463,1.107578 -2.590576,1.468398 -0.889775,0.177817 -1.626668,-0.610507 -1.864568,-1.39719 -0.278622,-0.635874 -0.584267,-1.425507 -0.218639,-2.082074 0.430848,-0.476764 1.14421,-0.378664 1.697981,-0.611079 0.761354,-0.216031 1.63701,-0.251539 2.271243,-0.761348 0.29195,-0.552744 -0.22142,-1.097099 -0.37517,-1.613899 -0.324655,-0.739355 -0.577785,-1.526733 -1.023389,-2.203546 -0.500139,-0.357785 -1.042432,0.150326 -1.486532,0.373156 -0.751172,0.41339 -1.463802,0.987772 -2.3232,1.14338 -0.795392,-0.01313 -1.123222,-0.873499 -1.338733,-1.508728 -0.24039,-0.579721 -0.429438,-1.416767 0.130878,-1.872051 0.630599,-0.446409 1.448698,-0.384717 2.157835,-0.625408 0.512356,-0.130466 1.103658,-0.103184 1.545925,-0.415656 0.268201,-0.504209 -0.180894,-1.035628 -0.333402,-1.51058 -0.387879,-0.84351 -0.647097,-1.764474 -1.16734,-2.536804 -0.229873,-0.203576 -0.564801,-0.240081 -0.852101,-0.157232 z" />
    <path
       id="path1443-4"
       style="fill:none;fill-opacity:1;stroke:#000000;stroke-width:0.8492;stroke-linecap:butt;stroke-linejoin:miter;stroke-miterlimit:4;stroke-dasharray:none;stroke-opacity:1"
       d="m 37.398293,21.35904 c -1.104315,0.332932 -1.657088,1.75494 -1.097428,2.756374 1.971415,6.219103 3.942963,12.438176 5.914296,18.657305 1.202716,-0.130753 2.500147,0.318824 3.627997,-0.26088 0.781215,-0.513505 0.730627,-1.574921 0.549608,-2.378864 -0.215594,-1.645048 -0.515598,-3.284798 -0.642506,-4.924989 1.064764,1.961648 1.865763,4.10311 3.017381,6.035137 0.45812,0.669056 1.33814,0.957852 2.108038,0.716187 1.597108,-0.387875 3.18141,-0.781514 4.772184,-1.223075 0.524222,-0.156728 1.164092,-0.282512 1.375938,-0.86375 0.309992,-0.71343 -0.02921,-1.512743 -0.533862,-2.040804 -1.85614,-2.552112 -4.451254,-4.487638 -6.131538,-7.178794 -0.315051,-0.182815 -0.06184,-0.483811 -0.04675,-0.748066 0.613404,-2.941867 1.345797,-5.86374 1.840632,-8.826504 0.02081,-0.904477 -0.983823,-1.645705 -1.839601,-1.324123 -1.294769,0.161755 -2.667259,0.14138 -3.92626,0.562543 -0.856421,0.443243 -0.894031,1.506986 -1.073784,2.335539 -0.299004,1.320863 -0.414598,2.715443 -0.927115,3.966903 -0.156139,-0.04088 -0.151963,-0.385882 -0.223812,-0.534928 -0.111199,-0.762921 -0.221576,-1.550442 -0.349587,-2.289399 -0.138057,-0.866071 -0.173798,-1.818862 -0.664033,-2.569374 -0.622165,-0.694555 -1.636518,-0.452204 -2.444124,-0.35184 -1.105701,0.133273 -2.211713,0.278503 -3.305675,0.485402 z" />
    <path
       id="path1443"
       style="fill:#0181c7;fill-opacity:1;stroke:#ffffff;stroke-width:0.8492;stroke-linecap:butt;stroke-linejoin:miter;stroke-miterlimit:4;stroke-dasharray:none;stroke-opacity:1"
       d="m 37.707311,22.204068 c -0.546126,0.163052 -0.915645,0.832216 -0.63817,1.361676 l 5.800124,18.294346 c 0.800517,-0.01738 1.63361,0.169771 2.41262,-0.0518 0.525966,-0.31884 0.281719,-0.988899 0.226765,-1.473028 -0.232573,-1.703869 -0.489658,-3.406527 -0.698643,-5.112339 -0.01172,-0.781842 1.093954,-1.281664 1.615607,-0.645403 0.654479,1.113794 1.129946,2.321549 1.717359,3.470783 0.467067,0.939357 0.847784,1.938408 1.447517,2.801059 0.368248,0.404514 0.944695,0.318223 1.40632,0.160442 1.371339,-0.338638 3.669776,-0.910467 5.024255,-1.307751 0.417992,-0.25519 0.190642,-0.791013 -0.06315,-1.077092 -1.580638,-2.314761 -4.129023,-4.287091 -5.731435,-6.587677 -0.330314,-0.469936 -0.661051,-0.939589 -0.991105,-1.409707 0.666238,-3.118693 1.381138,-6.227752 2.008328,-9.354298 0.06461,-0.35102 -0.173915,-0.80738 -0.588979,-0.650069 -1.221164,0.117744 -2.464447,0.203084 -3.680402,0.416522 -0.470375,0.124056 -0.578018,0.617867 -0.622725,1.032168 -0.343282,1.568564 -0.570548,3.166544 -1.007256,4.711575 -0.219416,0.56671 -0.955465,1.032146 -1.506064,0.601035 -0.705651,-0.591712 -0.5429,-1.598338 -0.754404,-2.403283 -0.182488,-1.033188 -0.236232,-2.075916 -0.543769,-3.083627 -0.359828,-0.478395 -1.016129,-0.15143 -1.505543,-0.16196 -0.760043,0.07762 -2.573728,0.339737 -3.327248,0.468458 z" />
    <path
       id="path1445-1"
       style="fill:none;fill-opacity:1;stroke:#000000;stroke-width:0.8492;stroke-linecap:butt;stroke-linejoin:miter;stroke-miterlimit:4;stroke-dasharray:none;stroke-opacity:1"
       d="m 36.177274,21.82888 c -1.234926,0.435204 -2.557406,0.671276 -3.706358,1.31668 -0.744123,0.657444 -0.598828,1.795197 -0.189894,2.595535 0.417259,1.201308 1.04228,2.383298 1.281284,3.613547 -0.571236,-0.160953 -0.894114,-0.741075 -1.309955,-1.128593 -0.916163,-0.900849 -1.755245,-1.879519 -2.693375,-2.758527 -0.489321,-0.449357 -1.059268,-0.919339 -1.769471,-0.853979 -0.97283,0.05242 -1.805287,0.565087 -2.704482,0.849178 -0.750177,0.280349 -1.499904,0.561905 -2.250389,0.841428 2.182975,6.307232 4.421441,12.594683 6.525158,18.924837 0.160269,0.830953 0.875929,1.730953 1.807721,1.562642 1.308838,-0.274977 2.523174,-0.857704 3.79292,-1.260304 0.864414,-0.367477 1.491117,-1.357396 1.195503,-2.29754 C 35.927341,42.08904 35.4317,41.021148 35.118749,39.899337 34.976923,39.462621 34.80721,39.0125 34.735515,38.56675 c 0.233594,0.0291 0.286678,0.36323 0.476762,0.489445 1.221329,1.433421 2.25969,3.026482 3.582632,4.369644 0.747581,0.591185 1.814301,0.482703 2.600072,0.02751 0.73226,-0.376661 1.587887,-0.574666 2.204122,-1.142481 0.520208,-0.503055 0.624976,-1.303579 0.363963,-1.961608 -0.403201,-1.309624 -0.87642,-2.597289 -1.294279,-3.903331 -1.543214,-4.573644 -3.050692,-9.16223 -4.65496,-13.713401 -0.33703,-0.644809 -1.105096,-1.099697 -1.836553,-0.903628 z" />
    <path
       id="path1445"
       style="fill:#0181c7;fill-opacity:1;stroke:#ffffff;stroke-width:0.8492;stroke-linecap:butt;stroke-linejoin:miter;stroke-miterlimit:4;stroke-dasharray:none;stroke-opacity:1"
       d="m 36.342941,22.714867 c -1.090111,0.387083 -2.226422,0.611345 -3.272276,1.107324 -0.494303,0.472518 -0.108946,1.16568 0.08671,1.681717 0.438932,1.206834 0.979778,2.383339 1.324581,3.620306 0.112154,0.607801 -0.422733,1.278975 -1.068371,1.117525 -0.910833,-0.123938 -1.364791,-1.033907 -2.003997,-1.583555 -0.999065,-0.99712 -1.895379,-2.0816 -2.976636,-2.993302 -0.741317,-0.425109 -1.526549,0.115446 -2.235686,0.339403 -0.741373,0.278079 -1.482747,0.556141 -2.22412,0.834222 2.061194,5.938015 4.136015,11.87238 6.175422,17.81728 0.123439,0.468419 0.215803,1.14967 0.780964,1.268201 0.939654,-0.133087 1.785436,-0.610224 2.692264,-0.870248 0.605793,-0.227632 1.445478,-0.365241 1.676836,-1.064377 0.108044,-0.842169 -0.376965,-1.614024 -0.574236,-2.41028 -0.306475,-0.997357 -0.694827,-1.976932 -0.931313,-2.991353 -0.03674,-0.82159 1.14347,-1.276704 1.661333,-0.633248 0.915579,1.033601 1.727465,2.155021 2.594947,3.228235 0.474634,0.574336 0.876477,1.252066 1.501518,1.672109 0.822394,0.325379 1.556592,-0.34644 2.304809,-0.584295 0.474596,-0.236594 1.132295,-0.391714 1.331231,-0.938236 0.07596,-0.74848 -0.370711,-1.423062 -0.543543,-2.131907 C 40.845044,33.87207 39.08432,28.529627 37.250998,23.214028 37.100764,22.878786 36.72602,22.582014 36.342937,22.714867 Z" />
    <path
       id="path1430-3-5"
       style="fill:none;fill-opacity:1;stroke:#000000;stroke-width:0.8492;stroke-linecap:butt;stroke-linejoin:miter;stroke-miterlimit:4;stroke-dasharray:none;stroke-opacity:1"
       d="m 19.769393,25.51895 c -2.293995,0.734422 -3.886011,2.775142 -4.824278,4.907331 -0.893303,1.959525 -0.482706,4.16124 -0.223505,6.211634 0.101664,0.899286 0.0063,1.846632 0.417138,2.684328 0.680878,2.199836 0.776213,4.667607 2.219271,6.563101 1.819933,2.400344 5.25218,3.2189 8.050121,2.254757 2.958792,-0.962903 5.143614,-3.693296 5.752222,-6.705388 0.685758,-3.052993 0.255399,-6.253142 -0.652534,-9.212571 -0.825622,-2.518253 -2.43574,-4.954009 -4.911549,-6.084555 -1.799955,-0.831531 -3.893151,-1.08636 -5.826886,-0.618637 z" />
    <path
       style="fill:#ffffff;stroke:#000000;stroke-width:0.8492;stroke-linecap:butt;stroke-linejoin:miter;stroke-miterlimit:4;stroke-dasharray:none;stroke-opacity:1"
       d="m 95.392513,13.832595 c 0.518584,-1.643305 1.580565,-1.445848 1.958691,-0.235879 l 0.851035,2.723277 2.462851,0.165113 c 1.03259,0.06923 1.66517,0.706207 0.54775,1.588004 l -1.699894,1.341454 0.799004,2.849356 c 0.51811,1.847645 -0.0507,2.615333 -1.470059,1.527099 l -2.276163,-1.745129 -4.067414,2.623039 0.752935,-4.739897 -1.712441,-1.625997 c -0.809413,-0.768549 -0.840641,-1.715147 0.713453,-1.646379 l 2.218088,0.09816 z"
       id="path1385" />
    <path
       id="path1437-3"
       style="fill:none;fill-opacity:1;stroke:#000000;stroke-width:0.8492;stroke-linecap:butt;stroke-linejoin:miter;stroke-miterlimit:4;stroke-dasharray:none;stroke-opacity:1"
       d="m 89.530257,9.2731766 c -1.395848,0.5128212 -2.894987,0.8580714 -4.212192,1.5782844 -0.804108,0.640869 -0.66159,1.768561 -0.667795,2.679317 -0.03238,1.175067 0.0698,2.373583 -0.08824,3.532855 -0.250848,0.09575 -0.194642,-0.315751 -0.320392,-0.431134 -0.46175,-1.238095 -0.792072,-2.548699 -1.292546,-3.788962 -0.25292,-0.567118 -0.735724,-1.135318 -1.416296,-1.086297 -0.806502,0.03516 -1.511356,0.502393 -2.284824,0.690174 -0.74086,0.265301 -1.576326,0.460498 -2.151353,1.021718 -0.5611,0.736052 -0.164235,1.681264 0.08168,2.457432 1.712129,5.728439 3.379964,11.471837 5.162702,17.177807 0.409076,0.933389 1.649979,1.27889 2.528013,0.816278 1.241734,-0.379456 2.528335,-0.678584 3.698686,-1.241989 0.787831,-0.576607 0.783035,-1.73264 0.372261,-2.534698 -0.452878,-1.446664 -1.062984,-2.845512 -1.438999,-4.314657 0.125405,-0.345773 0.313022,0.254595 0.455772,0.34666 1.089597,1.5095 2.086077,3.089035 3.257023,4.537849 0.542486,0.841513 1.684185,0.900906 2.548467,0.596904 1.472224,-0.609431 3.074903,-0.908197 4.456541,-1.727681 0.745649,-0.627871 0.556821,-1.887217 -0.207392,-2.416796 -1.290654,-1.23253 -2.615718,-2.429286 -3.82918,-3.739653 -1.002198,-1.048553 -1.984666,-2.115493 -2.97288,-3.177266 0.04558,-3.287588 0.195615,-6.5797 0.142501,-9.868799 -0.16552,-0.7883417 -1.044662,-1.3257154 -1.821562,-1.1073464 z" />
    <path
       style="fill:#0181c7;fill-opacity:1;stroke:#ffffff;stroke-width:0.8492;stroke-linecap:butt;stroke-linejoin:miter;stroke-miterlimit:4;stroke-dasharray:none;stroke-opacity:1"
       d="m 19.980175,26.3937 c -2.011577,0.658743 -3.349581,2.496548 -4.193822,4.348218 -1.092533,2.383439 -0.03636,4.869173 -0.07817,7.505294 1.135576,2.742312 0.796943,5.82531 3.058514,7.852816 1.380465,1.204686 3.286607,1.738183 5.09471,1.468867 2.688562,-0.319644 4.988996,-2.325275 5.949773,-4.816777 0.710572,-1.736332 0.872199,-3.62086 0.758334,-5.459028 -0.19277,-2.326588 -0.642509,-4.626935 -1.724664,-6.703134 -0.940134,-1.826652 -2.513984,-3.397707 -4.517762,-3.991378 -1.387681,-0.425484 -2.9325,-0.587873 -4.346906,-0.204878 z"
       id="path1430-3" />
    <path
       id="path1437"
       style="fill:#0181c7;fill-opacity:1;stroke:#ffffff;stroke-width:0.8492;stroke-linecap:butt;stroke-linejoin:miter;stroke-miterlimit:4;stroke-dasharray:none;stroke-opacity:1"
       d="m 87.896237,10.769083 c -0.65646,0.247315 -1.342704,0.424623 -1.978705,0.75268 -0.558666,0.443792 -0.303634,1.229953 -0.366911,1.840131 -0.02089,1.276292 0.03464,2.557679 -0.05946,3.830206 -0.152471,0.756439 -1.278827,1.127471 -1.74925,0.44523 -0.490442,-0.697918 -0.575741,-1.578845 -0.908044,-2.35083 -0.299593,-0.835937 -0.470939,-1.743414 -0.93925,-2.503381 -0.442949,-0.359228 -0.960796,0.0955 -1.415227,0.190612 -0.872722,0.322334 -1.77806,0.553446 -2.613685,0.972719 -0.405041,0.456434 0.03759,1.061574 0.123445,1.558102 1.707278,5.703784 3.380191,11.418603 5.121001,17.111868 0.16975,0.472467 0.709728,0.770145 1.183565,0.532081 1.198645,-0.312365 2.391381,-0.714314 3.595117,-1.097072 0.490849,-0.235953 0.528559,-0.86072 0.304738,-1.298597 -0.481581,-1.519614 -1.068412,-3.005953 -1.551619,-4.523429 -0.177206,-0.647346 0.261662,-1.535026 1.014693,-1.454721 0.68647,0.05316 0.912437,0.81149 1.300187,1.258838 1.016114,1.422253 1.968119,2.885068 3.043313,4.265013 0.506872,0.479668 1.253182,0.273369 1.816417,0.02469 1.251025,-0.460125 2.515359,-0.791805 3.716939,-1.346146 0.327525,-0.202794 0.365218,-0.670387 0.07786,-0.92573 -0.613513,-0.737667 -1.422943,-1.278669 -2.072524,-1.983813 -1.823092,-1.748152 -3.5145,-3.625739 -5.235541,-5.472999 0.05831,-3.309175 0.166738,-6.619239 0.184832,-9.927966 -0.03318,-0.41719 -0.485007,-0.664981 -0.858457,-0.478984 -0.577807,0.193833 -1.15562,0.387672 -1.733427,0.58151 z" />
    <path
       id="path1409-8"
       style="fill:#ffffff;stroke:#ffffff;stroke-width:0.8492;stroke-linecap:butt;stroke-linejoin:round;stroke-miterlimit:4;stroke-dasharray:none;stroke-dashoffset:0;stroke-opacity:1"
       d="m 21.567466,29.662052 c -0.889302,0.321569 -1.00789,1.374731 -1.173926,2.173851 -0.148623,0.734377 -0.297244,1.468748 -0.445866,2.203126 -1.710373,-0.0077 -3.420747,-0.01535 -5.13112,-0.02304 -0.569429,0.186988 -0.64241,1.038866 -0.173248,1.382945 1.695262,2.327244 3.36143,4.682094 5.07486,6.992106 0.633049,0.440701 1.38161,-0.07899 1.910285,-0.451882 0.527026,-0.392224 0.968162,-0.883203 1.401932,-1.372903 1.102945,0.523855 2.136132,1.244509 3.328992,1.548936 0.705559,0.156984 1.596179,-0.263399 1.606606,-1.06415 0.06536,-1.0612 -0.58018,-1.974362 -0.886192,-2.95165 -0.172485,-0.434825 -0.344969,-0.86966 -0.517452,-1.30449 0.655137,-0.724798 1.579193,-1.331399 1.831153,-2.325405 0.110799,-0.783218 -0.636273,-1.424217 -1.386342,-1.390226 -0.756217,-0.05669 -1.504607,0.120399 -2.255803,0.148322 -0.422593,-0.758965 -0.877203,-1.505768 -1.304781,-2.265588 -0.412725,-0.635802 -0.982391,-1.537647 -1.879098,-1.299956 z" />
    <path
       style="fill:#ffffff;stroke:#000000;stroke-width:0.8492;stroke-linecap:butt;stroke-linejoin:round;stroke-miterlimit:4;stroke-dasharray:none;stroke-dashoffset:0;stroke-opacity:1"
       d="m 20.437007,34.639079 -5.623415,-0.02531 5.344949,7.390132 c 1.058437,-0.223713 1.887611,-1.223375 2.729469,-2.180118 l 2.674264,1.376447 c 1.142475,0.588031 2.321466,0.556005 1.606159,-1.247249 l -1.306034,-3.292452 1.395791,-1.415871 c 1.121395,-1.137527 0.316299,-1.668577 -0.699841,-1.576993 l -2.121866,0.19125 -1.552142,-2.66077 c -0.763093,-1.308137 -1.473456,-1.369596 -1.791747,0.20263 z"
       id="path1409" />
    <path
       id="path1467-2"
       style="fill:none;fill-opacity:1;stroke:#000000;stroke-width:0.8492;stroke-linecap:butt;stroke-linejoin:miter;stroke-miterlimit:4;stroke-dasharray:none;stroke-dashoffset:0;stroke-opacity:1"
       d="m 8.4843479,28.731996 c -1.7739382,0.523068 -3.4015454,1.453028 -4.9613474,2.421585 -0.8449351,0.76748 -0.7158963,2.10189 -0.1816457,3.010178 2.3531334,5.417739 4.6441783,10.865461 7.0527552,16.256598 0.622612,1.021073 2.088902,1.181538 3.060343,0.585308 3.016245,-1.283679 5.585914,-3.820331 6.492166,-7.018583 0.935327,-3.082965 0.363184,-6.425888 -0.91162,-9.32418 -0.585271,-1.303636 -1.245096,-2.5904 -2.099813,-3.739029 -1.296971,-1.620053 -3.342927,-2.624448 -5.427758,-2.563634 -1.018941,-0.0094 -2.0323707,0.142066 -3.0230801,0.371757 z m 2.5363461,6.954 c 0.942071,-0.212074 1.677633,0.630939 2.107852,1.357424 0.776461,1.327232 1.350203,2.90949 1.054771,4.461625 -0.127454,0.460554 -0.365362,1.122976 -0.925098,1.134718 -0.521552,-0.547332 -0.652861,-1.322732 -0.986265,-1.987882 -0.61132,-1.419953 -1.276062,-2.842567 -1.788278,-4.282783 0.0048,-0.308067 0.199643,-0.657174 0.537018,-0.683102 z" />
    <path
       id="path1467"
       style="fill:#0181c7;fill-opacity:1;stroke:#ffffff;stroke-width:0.8492;stroke-linecap:butt;stroke-linejoin:miter;stroke-miterlimit:4;stroke-dasharray:none;stroke-dashoffset:0;stroke-opacity:1"
       d="m 8.6777787,29.610205 c -1.5873088,0.441726 -2.9960029,1.344737 -4.4355554,2.105882 -0.6031728,0.426507 -0.4981125,1.267006 -0.1836085,1.839191 2.3337865,5.390934 4.6372904,10.79607 6.9860112,16.179847 0.231502,0.578187 0.89208,0.865115 1.477485,0.668462 1.26217,-0.402288 2.393639,-1.149913 3.425395,-1.967438 1.973274,-1.597656 3.270125,-3.989684 3.501658,-6.520997 0.188256,-1.85869 -0.07613,-3.654138 -0.664606,-5.420497 C 18.24995,35.000498 17.591285,33.568724 16.752109,32.220857 15.854501,30.756716 14.375515,29.602603 12.64785,29.35579 11.327229,29.134013 9.9707875,29.305464 8.6777787,29.610205 Z m 2.1731783,5.193098 c 1.115437,-0.299038 2.162483,0.4787 2.766422,1.352759 0.922084,1.323864 1.5175,2.917546 1.55606,4.538772 0.01877,1.080805 -0.385386,2.359916 -1.461122,2.807292 -0.69649,0.260019 -1.377339,-0.295766 -1.601397,-0.933503 -0.82185,-1.93029 -1.673494,-3.853456 -2.4762907,-5.789004 -0.1644635,-0.734667 0.1359451,-1.620569 0.8981287,-1.875726 0.103122,-0.04167 0.210209,-0.07397 0.318193,-0.100619 z" />
  </g>
</svg>
