<?xml version="1.0" encoding="UTF-8" standalone="no"?>
<!-- Created with Inkscape (http://www.inkscape.org/) -->

<svg
   id="svg2"
   xml:space="preserve"
   height="325.15863"
   viewBox="0 0 999.99989 325.15861"
   width="1000"
   version="1.1"
   sodipodi:docname="Q-Bert_Logo.svg"
   inkscape:version="1.4.3 (0d15f75, 2025-12-25)"
   xmlns:inkscape="http://www.inkscape.org/namespaces/inkscape"
   xmlns:sodipodi="http://sodipodi.sourceforge.net/DTD/sodipodi-0.dtd"
   xmlns="http://www.w3.org/2000/svg"
   xmlns:svg="http://www.w3.org/2000/svg"
   xmlns:rdf="http://www.w3.org/1999/02/22-rdf-syntax-ns#"
   xmlns:cc="http://creativecommons.org/ns#"
   xmlns:dc="http://purl.org/dc/elements/1.1/"><defs
     id="defs4" /><sodipodi:namedview
     id="namedview4"
     pagecolor="#ffffff"
     bordercolor="#000000"
     borderopacity="0.25"
     inkscape:showpageshadow="2"
     inkscape:pageopacity="0.0"
     inkscape:pagecheckerboard="0"
     inkscape:deskcolor="#d1d1d1"
     inkscape:zoom="0.44436475"
     inkscape:cx="604.23334"
     inkscape:cy="219.41434"
     inkscape:window-width="1366"
     inkscape:window-height="697"
     inkscape:window-x="-8"
     inkscape:window-y="-8"
     inkscape:window-maximized="1"
     inkscape:current-layer="svg2" /><metadata
     id="metadata8"><rdf:RDF><cc:Work
         rdf:about=""><dc:format>image/svg+xml</dc:format><dc:type
           rdf:resource="http://purl.org/dc/dcmitype/StillImage" /><dc:title /></cc:Work></rdf:RDF></metadata><path
     id="path80"
     d="m 289.80419,224.58889 c -16.07841,-12.67209 -41.50792,2.77521 -47.26593,6.58682 -9.65808,6.39119 -13.64815,5.68256 -7.98588,-0.43184 22.64911,-24.44617 35.75148,-59.48329 35.75148,-94.05475 C 270.30386,62.923459 210.50423,0 133.84159,0 61.794947,0 0.01408824,58.535848 0.01408824,139.2947 c 0,3.94274 -1.24712604,36.86801 19.72613876,71.19859 26.238032,42.32321 73.85671,64.95774 112.943753,64.95774 3.27312,0 9.93069,0.004 14.02691,-0.49532 1.59,-0.19563 2.96303,1.28927 3.58998,2.69822 6.99212,15.73552 23.70737,38.42522 48.05104,44.59372 84.67554,21.44724 111.1467,-82.13759 91.45228,-97.65876 M 152.63024,163.01092 c -0.39646,0.93755 -1.32257,1.84597 -2.52443,1.25285 -3.1108,-1.53485 -8.9916,-4.05824 -18.5607,-4.05824 -8.8969,0 -11.849,7.68463 -12.9109,4.82617 -1.06398,-2.85845 -4.95104,-10.85837 -4.95104,-30.56004 0,-28.84728 9.65911,-52.680555 21.21362,-52.680555 11.554,0 21.21259,31.176075 21.21259,52.680555 0,24.23441 -2.82046,26.97943 -3.47914,28.53926 z"
     fill="#c2302e"
     style="stroke-width:1.06555" /><path
     id="path82"
     d="m 995.96953,173.72152 c -5.6701,-9.81572 -19.1756,-9.12374 -25.0945,-6.56392 -5.91869,2.55668 -6.83028,-1.41102 -6.83028,-2.95418 V 120.2361 h 20.21518 c 6.487,0 12.2726,-6.27673 12.2726,-15.63616 V 78.861902 c 0,-9.066511 -5.9271,-14.768846 -13.0186,-14.768846 -2.0136,0 -15.413,-0.146726 -19.90623,-0.146726 -4.25178,0 0.33194,-18.275568 -2.31317,-24.627225 -4.09988,-9.845381 -9.47543,-15.148658 -20.73545,-15.148658 -12.54309,0 -41.00793,21.529447 -50.49385,28.076728 -7.78965,5.377684 -29.30874,23.628794 -38.28891,32.30406 -0.38078,0.36992 -1.03946,1.16388 -1.93333,0.82725 -2.9906,-1.1285 -11.50773,-2.81423 -17.62524,-2.56865 -16.94155,0.68366 -29.56058,15.15489 -30.66566,15.15489 -1.10509,0 0.11447,-3.91984 -6.46403,-7.9739 -14.81776,-9.12946 -65.53527,12.327125 -73.9535,17.269855 -1.14983,0.67585 -2.3059,1.43131 -3.43285,2.25961 -0.73256,0.61758 -1.48801,0.63474 -1.95731,-0.27263 -14.27146,-27.709405 -42.65827,-47.494853 -73.80261,-47.494853 -36.98403,0 -67.27718,24.677178 -79.13346,59.081113 -0.19979,0.58169 -1.07491,0.52028 -1.32985,-0.0953 -8.58108,-20.72508 -25.48414,-36.889855 -54.74504,-36.889855 -13.08364,0 -27.5809,6.48849 -29.07984,7.00461 -1.8439,0.6337 -3.17272,0.24297 -3.17272,-2.193 0,-4.08998 -0.44587,-23.543476 -0.44587,-38.462168 0,-8.075882 -3.21173,-13.184058 -10.58054,-17.236564 -13.44056,-7.391705 -60.07225,3.441693 -80.32544,17.031574 -16.82606,11.286565 -26.91232,20.172015 -24.19071,32.927878 2.9724,13.92754 22.15483,8.80896 22.15483,20.112185 0,7.85997 1.821,34.23171 1.821,54.64878 0,25.24221 -1.72683,50.36682 -2.48956,62.15131 -0.36214,5.64511 -2.94067,17.01649 2.73565,22.75317 9.56599,9.67107 25.49403,4.58892 27.27133,4.5421 1.77573,-0.0489 8.26214,-0.11968 11.91664,2.37978 4.34855,2.96876 27.57048,15.30892 48.82314,15.30892 20.59501,0 72.27297,-14.52328 92.08026,-67.375 0.63683,-1.80226 1.67116,-1.70549 2.62953,0.0998 14.12785,26.72295 39.40336,46.12547 76.06065,46.12547 29.15476,0 50.66235,-10.59824 64.68407,-27.71982 1.73463,-1.75752 3.61079,-0.81268 2.22162,1.1259 -2.26012,3.15085 -2.94065,8.03739 -2.94065,14.12578 0,4.17893 3.0728,13.87187 17.1403,21.89261 7.65342,4.3652 24.75002,6.37038 45.11195,6.37038 23.99664,0 38.68848,-2.33921 47.67695,-8.51708 14.07997,-9.67318 14.1289,-19.90824 14.1289,-24.42746 0,-18.5305 -18.11221,-18.09035 -18.11221,-29.67087 0,-5.88652 0.14464,-23.49613 0.14464,-23.49613 0,-2.99477 0.57959,-2.9979 2.31527,-1.9209 1.73464,1.07491 12.24647,6.91981 21.79479,6.91981 14.44625,0 25.63031,-7.7606 33.45236,-17.31097 0.93648,-1.14463 2.90425,-1.57126 2.90425,0.30073 0,1.86991 -0.19257,23.4441 4.82403,42.74776 5.01352,19.3047 27.68962,36.07145 51.11084,36.07145 44.69893,0 84.6433,-36.86853 67.57063,-66.43744 z"
     fill="#c2302e"
     style="stroke-width:1.06555" /><path
     id="path84"
     d="m 768.11536,246.59284 c 0,0 49.25134,1.75648 49.25134,-17.90929 0,-13.13203 -16.94572,-15.39632 -19.55236,-28.15373 -1.77105,-8.65236 -4.63262,-53.49323 4.87612,-53.49323 9.50771,0 10.99261,17.299 33.41696,17.299 19.23703,0 27.27653,-16.81773 27.27653,-34.11777 0,-17.29901 -13.05916,-33.369085 -31.1662,-33.369085 -20.99147,0 -30.09751,23.815065 -33.7364,21.773975 -2.87927,-1.61184 -4.56603,-12.68561 -12.52433,-17.31668 -5.30588,-3.086345 -18.57942,1.45003 -33.25774,6.44739 -16.43481,5.59464 -33.51268,13.4801 -33.51268,24.18966 0,3.99476 3.7315,6.36987 7.72209,8.45518 3.35584,1.75492 5.67631,6.62532 5.89381,10.2668 0.7544,12.52381 2.13212,39.48297 0.26638,50.27162 -3.31631,19.14029 -13.17053,14.81775 -13.17053,29.47422 0,18.13302 48.21701,16.18194 48.21701,16.18194 z"
     style="fill:#ffe600;stroke-width:1.06555" /><path
     id="path86"
     d="m 364.44498,160.74349 c -5.90733,-3.5265 -11.93536,-0.64724 -20.61321,-3.90943 -4.02806,-1.51195 -7.95882,-1.92923 -7.95882,-5.19559 0,-3.90006 3.39695,-3.91671 7.73925,-5.20286 9.35579,-2.76948 14.39268,-0.27731 20.32655,-3.75542 5.92138,-3.47031 7.9609,-11.09979 4.55146,-17.03729 -3.40215,-5.93854 -10.96763,-7.93956 -16.88797,-4.46822 -5.93386,3.47811 -6.03636,8.86828 -12.69238,15.59558 -3.16439,3.20133 -5.35063,3.85324 -8.14717,2.92661 -2.79497,-0.92714 -1.74035,-4.47342 -1.02028,-8.41614 1.98958,-10.83861 6.34958,-11.61904 6.34958,-18.55341 0,-6.92033 -5.50464,-12.52902 -12.29281,-12.52902 -6.79182,0 -12.29852,5.60869 -12.29852,12.52902 0,6.93437 4.34074,8.32562 6.92813,18.55341 0.45629,1.79966 2.53848,6.37505 -0.85536,8.63779 -3.3959,2.26428 -6.47339,-2.54005 -8.16485,-4.02182 -7.86464,-6.87453 -7.26683,-10.83339 -13.17468,-14.36041 -5.89225,-3.51662 -13.47073,-1.5796 -16.92283,4.33345 -3.45366,5.90942 -1.47605,13.55399 4.41983,17.07372 5.90369,3.52443 9.14194,-0.10303 19.81509,2.16335 3.45367,0.73204 7.5915,1.24348 7.5915,5.41151 0,3.8756 -2.27104,4.86727 -6.412,6.14821 -8.68826,2.68259 -15.13513,0.27471 -21.06951,3.75543 -5.92191,3.46927 -7.95987,11.0977 -4.5546,17.03521 3.40789,5.93855 10.9692,7.94061 16.89214,4.46926 5.9344,-3.47865 6.27257,-8.49836 12.62736,-14.92389 4.1243,-4.16646 6.32823,-6.95 8.97493,-5.02285 3.13732,2.28406 1.83556,5.93751 0.9438,10.2996 -1.98437,9.68667 -7.03895,12.91454 -7.03895,19.84995 0,6.91773 5.50462,12.52641 12.29852,12.52641 6.78817,0 12.29281,-5.60868 12.29281,-12.52641 0,-6.9354 -5.34803,-10.47127 -7.33396,-19.84995 -0.93495,-4.42349 -2.847,-10.01968 0.46254,-11.59825 3.83346,-1.82723 6.86933,1.6618 10.1435,4.97292 7.16174,7.23926 6.67058,12.96761 12.57532,16.49515 5.8938,3.51818 13.47281,1.57855 16.9223,-4.33191 3.45627,-5.91252 1.47658,-13.55554 -4.41671,-17.07371 z"
     style="fill:#ffe600;stroke-width:1.06555" /><path
     id="path88"
     d="m 506.15273,98.214465 c -17.12106,-1.56294 -36.72805,8.168495 -42.41894,13.919215 -2.3491,2.37407 -2.8725,-3.58685 -2.8725,-10.3256 0,-12.900495 -0.0525,-35.061568 -1.44328,-46.347611 -0.4667,-3.81683 -1.27262,-8.206998 -5.5015,-8.91615 -27.05178,-4.533249 -82.59858,15.208488 -79.2729,32.840988 2.48332,13.152838 21.84213,5.424508 21.31351,18.829158 0,0 1.42091,32.951285 1.42091,59.467685 0,50.08587 -4.43492,71.43634 -1.71798,74.18241 6.1784,6.24657 17.88484,-4.96353 23.53827,0.46098 30.22134,29.00492 119.48845,28.01532 133.28066,-55.16805 C 561.33269,123.76 532.73724,100.639 506.1527,98.214465 m -14.04561,84.621425 c 0.37461,20.74173 -8.34071,42.25972 -20.44361,42.25972 -16.87861,0 -17.29588,-82.96901 -0.67169,-82.96901 11.28241,0 20.74173,19.96651 21.1153,40.70929 z"
     style="fill:#ffe600;stroke-width:1.06555" /><path
     id="path90"
     d="m 641.75127,157.48857 53.61446,-1.79292 c 10.05298,0 14.59924,-0.35171 11.26212,-20.5924 -3.8855,-23.5518 -23.56898,-59.327204 -62.56131,-59.327204 -47.60828,0 -74.05338,39.682754 -74.05338,84.603224 0,31.81551 22.77813,70.27715 74.05338,70.27715 47.81432,0 69.37393,-42.28887 57.65292,-51.62384 -14.70016,-11.7054 -14.23398,15.46603 -50.79658,8.60865 -16.47123,-3.08842 -31.6126,-30.15266 -9.17161,-30.15266 m 0.22164,-54.27314 c 11.57429,0 18.38692,26.60328 12.37241,26.60328 l -24.16209,0.24349 c -7.70024,0 0.21643,-26.84677 11.78968,-26.84677 z"
     style="fill:#ffe600;stroke-width:1.06555" /><path
     id="path96"
     d="m 953.08965,107.47448 c 4.30583,0 23.06938,0.12019 23.06938,0.12019 5.1135,0 5.3309,-3.22005 6.024,-5.29235 0.7856,-2.347525 0.4214,-18.753715 0.4214,-20.218835 0,-1.4667 -0.3257,-5.773626 -5.3392,-6.228358 -5.0166,-0.455244 -20.3963,0.770032 -24.85301,-2.618073 -9.02697,-6.866223 3.4713,-34.908609 -15.98422,-34.908609 -8.41201,0 -22.48157,11.164304 -38.09123,21.938394 -20.59189,14.21109 -41.81127,30.369626 -36.08289,39.046446 10.99882,16.680365 25.929,0.26481 24.29011,13.061255 -1.38189,10.80687 -2.56396,74.89625 1.8272,85.65577 13.99156,32.57617 55.26485,34.27958 79.32084,17.61898 15.4764,-10.71894 22.7021,-27.43262 16.0633,-34.76345 -4.7108,-5.20599 -10.1103,-1.48282 -16.6523,1.13839 -5.43181,2.17791 -15.86768,0.23724 -18.15597,-15.63044 -1.16434,-8.10711 -0.43286,-42.83882 -0.0776,-51.6046 0.17066,-4.34023 1.4246,-7.3147 4.22059,-7.3147 z"
     style="fill:#ffe600;stroke-width:1.06555" /><path
     id="path98"
     d="m 276.09725,238.44302 c -12.96554,-13.10602 -37.25874,27.8967 -64.24703,17.14031 -4.58892,-1.82933 -10.99002,-8.40159 -12.46293,-12.76887 -0.64933,-1.92402 -0.34132,-4.66801 1.36783,-5.74084 31.04392,-19.45559 53.34703,-58.55094 53.34703,-100.38455 0,-64.1154 -56.52079,-120.894212 -120.26054,-120.894212 -65.775103,0 -121.675691,56.729925 -121.675691,123.499792 0,9.61126 1.139943,18.92854 3.278323,27.84 1.436996,7.16335 3.301702,12.2247 5.901529,18.02799 18.246435,43.50529 61.639366,73.59345 111.338189,73.59345 6.62792,0 13.1237,-0.5588 19.45246,-1.62122 3.93025,-0.8772 5.68153,0.31321 6.78349,3.26531 6.49318,17.39838 16.55707,36.10787 44.44494,46.07136 51.79033,18.50344 88.28112,-52.30958 72.73237,-68.02847 M 161.4501,189.05853 c -0.44277,0.69718 -1.15556,1.63578 -2.7466,0.0281 -6.42396,-6.49318 -8.42498,-10.93018 -18.95298,-14.09143 -9.0072,-2.70653 -18.04509,2.35584 -16.74021,10.40051 0.66336,4.09362 4.35635,3.26636 9.11281,6.50774 11.35577,8.36309 11.76887,18.64498 9.96089,20.47118 -1.58011,1.59937 -4.86416,1.11134 -7.74915,0.5848 -20.06172,-3.65552 -36.911723,-34.78008 -36.911723,-76.27344 0,-41.488655 16.527423,-74.055981 36.911723,-74.055981 20.38533,0 36.91276,32.567326 36.91276,74.055981 0,21.06899 -6.14198,46.62649 -9.79752,52.37254 z"
     style="fill:#ffe600;stroke-width:1.06555" /></svg>
